<svg width="187" height="74" viewBox="0 0 187 74" fill="none" xmlns="http://www.w3.org/2000/svg">
<path d="M77.4143 40.5838L83.0579 27.2778H86.6268L92.2704 40.5838H88.7433L87.685 38.0557H81.9997L80.9414 40.5838H77.4143ZM83.0784 35.3562H86.5851L84.8419 31.0981L83.0784 35.3562Z" fill="#151515"/>
<path d="M99.823 40.8119C98.3844 40.8119 97.1154 40.5172 96.0158 39.928C94.9162 39.3389 94.0512 38.5278 93.422 37.4949C92.7924 36.4623 92.478 35.2743 92.478 33.9309C92.478 32.5874 92.7924 31.3998 93.422 30.3669C94.0512 29.3339 94.9162 28.5228 96.0158 27.9337C97.1154 27.3446 98.3844 27.0498 99.823 27.0498C100.874 27.0498 101.839 27.2179 102.718 27.5534C103.596 27.8892 104.357 28.3611 105 28.9697C105.643 29.5779 106.138 30.2813 106.483 31.0797L103.351 32.0491C103.143 31.6057 102.863 31.2194 102.51 30.8895C102.157 30.56 101.756 30.3067 101.307 30.1293C100.857 29.9518 100.363 29.8633 99.823 29.8633C99.062 29.8633 98.3844 30.0344 97.7896 30.3766C97.1948 30.7188 96.7314 31.197 96.3994 31.8115C96.0674 32.4264 95.9012 33.1325 95.9012 33.9309C95.9012 34.7292 96.0703 35.436 96.4096 36.0502C96.7486 36.6651 97.219 37.1467 97.8207 37.4949C98.4225 37.8434 99.1103 38.0175 99.8852 38.0175C100.452 38.0175 100.957 37.9226 101.4 37.7325C101.842 37.5423 102.226 37.2763 102.551 36.9341C102.876 36.5919 103.157 36.1993 103.392 35.7554L106.525 36.7249C106.193 37.5359 105.702 38.2487 105.052 38.8633C104.401 39.4782 103.633 39.9564 102.748 40.2982C101.863 40.6404 100.888 40.8115 99.8226 40.8115L99.823 40.8119Z" fill="#151515"/>
<path d="M114.49 40.8119C113.052 40.8119 111.783 40.5172 110.683 39.928C109.584 39.3389 108.719 38.5278 108.089 37.4949C107.46 36.4623 107.145 35.2743 107.145 33.9309C107.145 32.5874 107.46 31.3998 108.089 30.3669C108.719 29.3339 109.584 28.5228 110.683 27.9337C111.783 27.3446 113.052 27.0498 114.49 27.0498C115.542 27.0498 116.506 27.2179 117.385 27.5534C118.263 27.8892 119.024 28.3611 119.667 28.9697C120.311 29.5779 120.805 30.2813 121.151 31.0797L118.018 32.0491C117.81 31.6057 117.53 31.2194 117.178 30.8895C116.825 30.56 116.424 30.3067 115.974 30.1293C115.524 29.9518 115.03 29.8633 114.49 29.8633C113.729 29.8633 113.052 30.0344 112.457 30.3766C111.862 30.7188 111.399 31.197 111.067 31.8115C110.735 32.4264 110.569 33.1325 110.569 33.9309C110.569 34.7292 110.738 35.436 111.077 36.0502C111.416 36.6651 111.886 37.1467 112.488 37.4949C113.09 37.8434 113.778 38.0175 114.553 38.0175C115.12 38.0175 115.624 37.9226 116.067 37.7325C116.51 37.5423 116.894 37.2763 117.219 36.9341C117.544 36.5919 117.824 36.1993 118.059 35.7554L121.192 36.7249C120.86 37.5359 120.369 38.2487 119.719 38.8633C119.069 39.4782 118.301 39.9564 117.416 40.2982C116.53 40.6404 115.555 40.8115 114.49 40.8115L114.49 40.8119Z" fill="#151515"/>
<path d="M123.018 40.5838V27.2778H132.48V30.0909H126.359V32.5241H131.484V35.2423H126.359V37.7703H132.584V40.5834H123.018V40.5838Z" fill="#151515"/>
<path d="M135.614 40.5838V27.2778H138.955V37.7707H145.138V40.5838H135.614Z" fill="#151515"/>
<path d="M153.769 40.8119C152.276 40.8119 150.954 40.5171 149.806 39.928C148.658 39.3389 147.759 38.5278 147.109 37.4948C146.459 36.4623 146.134 35.2802 146.134 33.9499C146.134 32.6196 146.458 31.4189 147.109 30.3859C147.759 29.3533 148.655 28.5423 149.796 27.9527C150.937 27.3636 152.248 27.0688 153.728 27.0688C155.208 27.0688 156.519 27.3636 157.66 27.9527C158.801 28.5419 159.697 29.3533 160.347 30.3859C160.997 31.4189 161.322 32.6069 161.322 33.9499C161.322 35.2929 161.001 36.4623 160.358 37.4948C159.714 38.5278 158.825 39.3385 157.691 39.928C156.557 40.5171 155.25 40.8119 153.77 40.8119H153.769ZM153.769 37.9988C154.586 37.9988 155.305 37.8277 155.927 37.4855C156.55 37.1433 157.034 36.6651 157.38 36.0502C157.725 35.4356 157.898 34.7355 157.898 33.9499C157.898 33.1643 157.718 32.4451 157.359 31.8306C156.999 31.216 156.508 30.7345 155.886 30.3859C155.263 30.0377 154.544 29.8633 153.728 29.8633C152.912 29.8633 152.192 30.0377 151.57 30.3859C150.947 30.7345 150.456 31.216 150.097 31.8306C149.737 32.4455 149.557 33.1516 149.557 33.9499C149.557 34.7483 149.737 35.436 150.097 36.0502C150.456 36.6651 150.954 37.1433 151.59 37.4855C152.227 37.8277 152.953 37.9988 153.769 37.9988H153.769Z" fill="#151515"/>
<path d="M163.772 40.5838V27.2778H167.279L173.649 35.3943V27.2778H176.989V40.5838H173.649L167.113 32.239V40.5838H163.772Z" fill="#151515"/>
<path d="M99.3976 53.4245V45.6592H101.344V48.6501H104.863V45.6704H106.81V53.4245H104.863V50.2894H101.344V53.4245H99.3976Z" fill="#151515"/>
<path d="M110.784 53.424V45.6699H116.297V47.3092H112.73V48.727H115.717V50.311H112.73V51.7844H116.358V53.4237H110.783L110.784 53.424Z" fill="#151515"/>
<path d="M119.155 53.424L122.444 45.6699H124.524L127.813 53.424H125.757L125.141 51.9506H121.828L121.211 53.424H119.156H119.155ZM122.456 50.3778H124.5L123.484 47.8965L122.456 50.3778Z" fill="#151515"/>
<path d="M131.243 53.424V45.6699H133.189V51.7848H136.793V53.424H131.242H131.243Z" fill="#151515"/>
<path d="M140.981 53.424V47.3092H138.514V45.6699H145.382V47.3092H142.915V53.424H140.98H140.981Z" fill="#151515"/>
<path d="M148.792 53.4245V45.6592H150.738V48.6501H154.257V45.6704H156.204V53.4245H154.257V50.2894H150.738V53.4245H148.792Z" fill="#151515"/>
<path d="M20.4003 55.4422L17.1978 54.0884C17.7914 53.435 18.6114 52.8526 19.7109 52.4741C19.9541 52.9624 20.3823 54.0167 20.4003 55.4422Z" fill="#151515"/>
<path d="M37.5588 27.1737C37.5588 27.1737 37.4651 27.0586 37.2805 26.8782C37.3656 26.3813 37.3959 25.9405 37.3619 25.5845C37.4233 25.6569 37.4839 25.7324 37.5437 25.8082L37.5588 27.1737Z" fill="#151515"/>
<path d="M37.3431 25.4282C37.3509 25.4782 37.3574 25.5302 37.3619 25.5847C35.5308 23.4045 33.1396 22.6278 31.9913 22.6554C30.8029 22.6831 28.2276 23.0496 26.9008 24.26C25.5744 25.4708 24.51 25.85 24.51 25.85C25.7136 25.2029 28.9833 19.4038 30.001 17.602C31.0191 15.8002 32.2222 13.2669 33.888 11.9429C35.5545 10.62 38.3923 10.7045 40.4895 10.7609C42.588 10.8169 44.7466 11.0426 46.1663 12.3942C47.5848 13.7447 49.0041 16.8701 50.2691 19.3193C51.534 21.7682 55.6675 29.2851 55.6675 29.2851C49.8376 29.1166 42.8041 31.6502 42.8041 31.6502L36.4183 19.1224C36.4183 19.1224 36.2951 20.4741 36.4183 21.7969C36.5415 23.1198 37.0971 23.8804 37.3435 25.4289L37.3431 25.4282Z" fill="#151515"/>
<path d="M16.5846 54.9067C16.2833 55.3976 16.0876 55.8979 15.9758 56.3585L19.7871 57.9716C20.036 57.4602 20.2329 56.9226 20.3316 56.3921L16.5846 54.9067ZM16.5846 54.9067C16.2833 55.3976 16.0876 55.8979 15.9758 56.3585L19.7871 57.9716C20.036 57.4602 20.2329 56.9226 20.3316 56.3921L16.5846 54.9067ZM16.5846 54.9067C16.2833 55.3976 16.0876 55.8979 15.9758 56.3585L19.7871 57.9716C20.036 57.4602 20.2329 56.9226 20.3316 56.3921L16.5846 54.9067ZM16.5846 54.9067C16.2833 55.3976 16.0876 55.8979 15.9758 56.3585L19.7871 57.9716C20.036 57.4602 20.2329 56.9226 20.3316 56.3921L16.5846 54.9067ZM16.5846 54.9067C16.2833 55.3976 16.0876 55.8979 15.9758 56.3585L19.7871 57.9716C20.036 57.4602 20.2329 56.9226 20.3316 56.3921L16.5846 54.9067ZM16.5846 54.9067C16.2833 55.3976 16.0876 55.8979 15.9758 56.3585L19.7871 57.9716C20.036 57.4602 20.2329 56.9226 20.3316 56.3921L16.5846 54.9067ZM16.5846 54.9067C16.2833 55.3976 16.0876 55.8979 15.9758 56.3585L19.7871 57.9716C20.036 57.4602 20.2329 56.9226 20.3316 56.3921L16.5846 54.9067ZM16.5846 54.9067C16.2833 55.3976 16.0876 55.8979 15.9758 56.3585L19.7871 57.9716C20.036 57.4602 20.2329 56.9226 20.3316 56.3921L16.5846 54.9067ZM16.5846 54.9067C16.2833 55.3976 16.0876 55.8979 15.9758 56.3585L19.7871 57.9716C20.036 57.4602 20.2329 56.9226 20.3316 56.3921L16.5846 54.9067ZM16.5846 54.9067C16.2833 55.3976 16.0876 55.8979 15.9758 56.3585L19.7871 57.9716C20.036 57.4602 20.2329 56.9226 20.3316 56.3921L16.5846 54.9067ZM16.5846 54.9067C16.2833 55.3976 16.0876 55.8979 15.9758 56.3585L19.7871 57.9716C20.036 57.4602 20.2329 56.9226 20.3316 56.3921L16.5846 54.9067ZM16.5846 54.9067C16.2833 55.3976 16.0876 55.8979 15.9758 56.3585L19.7871 57.9716C20.036 57.4602 20.2329 56.9226 20.3316 56.3921L16.5846 54.9067ZM16.5846 54.9067C16.2833 55.3976 16.0876 55.8979 15.9758 56.3585L19.7871 57.9716C20.036 57.4602 20.2329 56.9226 20.3316 56.3921L16.5846 54.9067ZM16.5846 54.9067C16.2833 55.3976 16.0876 55.8979 15.9758 56.3585L19.7871 57.9716C20.036 57.4602 20.2329 56.9226 20.3316 56.3921L16.5846 54.9067ZM16.5846 54.9067C16.2833 55.3976 16.0876 55.8979 15.9758 56.3585L19.7871 57.9716C20.036 57.4602 20.2329 56.9226 20.3316 56.3921L16.5846 54.9067ZM16.5846 54.9067C16.2833 55.3976 16.0876 55.8979 15.9758 56.3585L19.7871 57.9716C20.036 57.4602 20.2329 56.9226 20.3316 56.3921L16.5846 54.9067ZM16.5846 54.9067C16.2833 55.3976 16.0876 55.8979 15.9758 56.3585L19.7871 57.9716C20.036 57.4602 20.2329 56.9226 20.3316 56.3921L16.5846 54.9067ZM16.5846 54.9067C16.2833 55.3976 16.0876 55.8979 15.9758 56.3585L19.7871 57.9716C20.036 57.4602 20.2329 56.9226 20.3316 56.3921L16.5846 54.9067ZM16.5846 54.9067C16.2833 55.3976 16.0876 55.8979 15.9758 56.3585L19.7871 57.9716C20.036 57.4602 20.2329 56.9226 20.3316 56.3921L16.5846 54.9067ZM16.5846 54.9067C16.2833 55.3976 16.0876 55.8979 15.9758 56.3585L19.7871 57.9716C20.036 57.4602 20.2329 56.9226 20.3316 56.3921L16.5846 54.9067Z" fill="#151515"/>
<path d="M64.7065 43.3325C64.7065 43.3325 64.9071 43.2765 65.7246 44.1204C65.7246 44.1204 68.6553 40.7141 68.1923 37.3077C67.7301 33.9014 65.4777 31.1985 59.8947 30.495C54.3108 29.7908 46.9376 31.8743 40.6758 33.7605C34.4132 35.6468 29.7553 39.6729 26.7006 41.0806C23.6467 42.4882 18.2998 46.3731 14.5983 51.2529C14.5983 51.2529 14.1455 49.7511 17.6927 45.8946C21.2408 42.0373 24.4486 40.9113 27.1022 39.3352C29.7553 37.7583 32.9018 35.7032 34.6605 33.0851C35.9872 31.1096 36.9804 28.6383 37.2813 26.8784C36.612 26.2224 34.7444 24.6903 31.8063 24.5696C28.0585 24.415 25.4516 27.2303 23.4461 27.5957C23.4461 27.5957 24.8805 28.0182 26.2851 27.4272C27.6884 26.8362 28.5833 26.2164 30.5262 26.188C32.4703 26.1603 34.5778 27.1219 35.5238 28.3697C35.5238 28.3697 34.6453 28.9193 33.5809 28.159C33.5809 28.159 33.7042 28.9331 33.0717 29.8061C33.0717 29.8061 32.6087 32.3536 31.3748 33.6911C30.141 35.0277 28.3979 36.1123 26.3932 35.9004C24.3876 35.6897 23.7863 34.4651 23.7863 33.3956C23.7863 32.326 24.6963 31.5231 25.8221 31.5515C26.9479 31.5792 27.1951 32.5651 27.1792 32.9868C27.164 33.4094 26.7321 33.8035 26.0693 33.5924C25.4057 33.3806 25.2825 33.2259 25.2825 33.2259C25.2825 33.2259 24.9739 33.5214 25.1585 33.9578C25.3439 34.3941 26.0996 34.7606 27.1489 34.6474C28.1973 34.535 29.339 34.0004 30.2802 32.7474C31.2205 31.4951 31.4059 30.7211 31.4059 30.7211C31.4059 30.7211 30.1872 30.9318 29.1532 30.4394C28.1203 29.947 27.9193 28.9895 28.0122 28.1728C28.0122 28.1728 26.8402 28.8348 25.4053 28.9895C23.9709 29.1442 23.2303 29.0179 23.2303 29.0179C23.2303 29.0179 19.3282 35.9004 17.7243 38.6033C16.1203 41.3055 12.1093 48.1749 11.3998 51.0467C10.6908 53.918 11.2455 57.1552 12.4794 58.9566C13.714 60.7591 15.7498 63.0955 19.6671 63.4897C23.5844 63.8838 26.9573 63.0955 30.8946 58.5643C30.8332 58.6204 28.8277 60.449 26.701 60.4214C24.542 60.393 24.3262 58.1126 25.8372 54.3122C26.7235 52.0837 28.1297 49.5942 30.0178 47.6153C30.5573 47.541 31.3224 47.5619 32.3463 47.8649C34.7219 48.5691 38.5164 51.4681 41.4782 53.8893C44.4392 56.3105 48.0798 60.1393 50.8561 61.6879C53.0197 62.8942 55.7649 63.7246 58.5061 63.6055V51.4681C58.5061 51.4681 55.2061 48.5403 54.8512 48.0195C54.4963 47.4995 53.9563 46.6126 54.3268 45.2464C54.6969 43.8809 56.0851 43.5432 57.0729 43.5432C58.0607 43.5432 58.9544 44.2751 59.2782 44.9793C59.2782 44.9793 59.7412 43.5432 61.8384 43.5432C63.9356 43.5432 64.2758 45.5565 64.3524 46.1191C64.4301 46.6825 64.0134 47.8084 63.2728 48.5541C62.5323 49.3005 59.8177 51.6089 59.8177 51.6089V63.474C60.1538 63.4205 60.4883 63.3503 60.8203 63.264C61.7209 63.029 62.59 62.7126 63.4014 62.2987V54.0809C62.8274 53.8717 62.4242 53.3793 62.4242 52.8055C62.4242 52.0408 63.1402 51.4214 64.0236 51.4214C64.9071 51.4214 65.6218 52.0408 65.6218 52.8055C65.6218 53.3689 65.2337 53.8538 64.6758 54.069V61.5339C66.3763 60.337 67.7019 58.5961 68.347 56.142C69.4266 52.0314 66.8045 47.0766 64.7073 43.3325H64.7065ZM25.6821 49.6102C24.4503 51.0523 23.078 51.3911 20.8179 52.1103C21.337 53.079 22.0251 54.9611 21.8368 56.0945C21.5896 57.5773 21.425 58.45 20.3455 59.7826C19.266 61.1152 18.0833 61.4435 17.7623 61.3501C17.4406 61.256 17.5179 60.9934 17.5179 60.9934C17.8577 60.755 18.6732 59.8786 19.3503 58.7683L15.8583 57.3363C15.8837 58.7268 16.8138 60.5899 16.8138 60.5899C16.4286 60.6747 16.1965 60.7591 15.4408 59.9705C14.6851 59.1826 13.9597 57.2822 14.9164 54.7623C15.8727 52.2425 19.1431 50.9906 20.9018 50.4833C21.5298 50.3029 22.2143 50.0425 22.8656 49.6988L19.5439 48.0061L20.3459 47.2466L23.8608 49.0794C24.3029 48.7536 24.7008 48.3785 25.0123 47.9515L21.4254 46.1056L22.2585 45.3039L25.5138 47.0295C25.5196 47.0176 25.5232 47.0045 25.5282 46.9925C26.1917 45.1347 25.4516 43.1921 25.4516 43.1921L26.5311 42.4042C26.5311 42.4042 27.2414 43.2208 27.3642 44.7267C27.4874 46.233 27.1018 47.95 25.6825 49.6106L25.6821 49.6102ZM55.1742 55.4662L55.1713 55.4905L49.201 50.0182C49.3631 49.7761 49.4569 49.4918 49.4569 49.1888C49.4569 48.3076 48.6738 47.5929 47.7089 47.5929C46.744 47.5929 45.9608 48.3076 45.9608 49.1888C45.9608 50.0701 46.7431 50.784 47.7089 50.784C47.8566 50.784 47.9995 50.7676 48.1358 50.7355L55.0481 57.1738C55.0596 57.3898 55.0567 57.6819 54.9883 57.9154C54.8651 58.3379 54.1561 58.9853 53.0139 58.6756C51.873 58.3656 49.0966 55.6347 47.8014 54.5091C46.5049 53.3831 40.7368 47.8372 37.1585 46.7953C34.3461 45.9771 32.639 45.9924 30.674 46.9664C31.8575 45.8665 33.2088 44.977 34.7211 44.4589C39.0711 42.9675 44.5923 43.3329 48.2021 45.5572C51.8116 47.7815 54.6494 52.0882 55.1742 55.4669V55.4662ZM63.7035 38.2723C62.2965 38.3033 56.9947 38.4184 56.9009 38.4064C56.7929 38.3919 56.3614 38.167 55.8992 38.1808C55.4362 38.1946 55.1889 38.5887 55.1889 38.5887L53.4589 42.8297C53.4184 42.9298 53.3451 43.0139 53.2526 43.0718C53.1609 43.1304 53.0491 43.164 52.9316 43.164C52.659 43.164 52.4253 42.9843 52.3778 42.7389L50.9319 35.2246L49.4614 40.6461C49.4303 40.7593 49.3627 40.8579 49.271 40.9311C49.1781 41.0047 49.0627 41.0529 48.9349 41.0652C48.6652 41.091 48.4093 40.9513 48.3069 40.7223L46.9527 37.6884L46.6952 38.1498C46.484 38.529 46.0562 38.7669 45.5903 38.7651L35.557 38.7176C35.3675 38.7169 35.2144 38.5768 35.2144 38.4038C35.2144 38.2309 35.3638 38.0938 35.5504 38.0893L45.472 37.8853L46.5163 36.3058C46.753 35.9479 47.3363 35.9905 47.5079 36.3783L48.7569 39.2082L50.4271 32.7922C50.4537 32.6902 50.5135 32.6006 50.5958 32.5329C50.6772 32.4646 50.7812 32.419 50.8958 32.4052C51.1922 32.3682 51.4677 32.5513 51.5209 32.8199L53.1069 40.8691C53.1069 40.8691 53.7545 39.3628 53.9706 38.7684C54.1864 38.1741 54.5266 37.3641 55.1128 37.1759C55.699 36.9883 56.5472 37.1759 56.5472 37.1759C56.5472 37.1759 56.9791 37.4351 57.2411 37.4489C57.4675 37.4609 62.3636 37.5991 63.7056 37.6365C63.8001 37.6391 63.8836 37.6753 63.945 37.7332C64.0056 37.7904 64.0425 37.8681 64.0425 37.9544C64.0425 38.1274 63.893 38.269 63.7035 38.2723Z" fill="#151515"/>
<path d="M30.7112 29.6995C31.5148 29.6995 32.1661 29.1618 32.1661 28.4984C32.1661 27.8351 31.5148 27.2974 30.7112 27.2974C29.9077 27.2974 29.2563 27.8351 29.2563 28.4984C29.2563 29.1618 29.9077 29.6995 30.7112 29.6995Z" fill="#151515"/>
</svg>
