<svg width="171" height="69" viewBox="0 0 171 69" fill="none" xmlns="http://www.w3.org/2000/svg">
<path d="M70.7906 37.8418L75.9513 25.4349H79.2149L84.3756 37.8418H81.1503L80.1826 35.4846H74.9836L74.016 37.8418H70.7906ZM75.97 32.9674H79.1767L77.5827 28.997L75.97 32.9674Z" fill="url(#paint0_linear_795_1077)"/>
<path d="M91.282 38.0543C89.9665 38.0543 88.806 37.7794 87.8005 37.2301C86.795 36.6808 86.0041 35.9245 85.4287 34.9614C84.8529 33.9985 84.5654 32.8908 84.5654 31.6382C84.5654 30.3855 84.8529 29.2781 85.4287 28.315C86.0041 27.3518 86.795 26.5956 87.8005 26.0462C88.806 25.4969 89.9665 25.222 91.282 25.222C92.2433 25.222 93.1253 25.3788 93.929 25.6916C94.732 26.0048 95.4279 26.4447 96.016 27.0122C96.6041 27.5793 97.0563 28.2352 97.3726 28.9796L94.5077 29.8836C94.3179 29.4701 94.0619 29.1099 93.7392 28.8023C93.4165 28.4951 93.0496 28.2589 92.6386 28.0934C92.2272 27.928 91.7754 27.8454 91.282 27.8454C90.5861 27.8454 89.9665 28.005 89.4226 28.324C88.8787 28.6431 88.4549 29.089 88.1513 29.662C87.8477 30.2354 87.6957 30.8938 87.6957 31.6382C87.6957 32.3826 87.8503 33.0416 88.1607 33.6143C88.4706 34.1877 88.9008 34.6367 89.451 34.9614C90.0013 35.2864 90.6302 35.4487 91.3389 35.4487C91.8573 35.4487 92.3189 35.3602 92.724 35.1829C93.1286 35.0056 93.4798 34.7576 93.777 34.4385C94.0739 34.1194 94.3303 33.7533 94.5455 33.3395L97.4104 34.2434C97.1068 34.9997 96.6576 35.6643 96.0631 36.2373C95.4687 36.8107 94.7664 37.2566 93.9571 37.5753C93.1473 37.8944 92.2557 38.0539 91.2816 38.0539L91.282 38.0543Z" fill="url(#paint1_linear_795_1077)"/>
<path d="M104.694 38.0543C103.379 38.0543 102.219 37.7794 101.213 37.2301C100.208 36.6808 99.4166 35.9245 98.8412 34.9614C98.2654 33.9985 97.9779 32.8908 97.9779 31.6382C97.9779 30.3855 98.2654 29.2781 98.8412 28.315C99.4166 27.3518 100.208 26.5956 101.213 26.0462C102.219 25.4969 103.379 25.222 104.694 25.222C105.656 25.222 106.538 25.3788 107.341 25.6916C108.144 26.0048 108.84 26.4447 109.428 27.0122C110.017 27.5793 110.469 28.2352 110.785 28.9796L107.92 29.8836C107.73 29.4701 107.474 29.1099 107.152 28.8023C106.829 28.4951 106.462 28.2589 106.051 28.0934C105.64 27.928 105.188 27.8454 104.694 27.8454C103.999 27.8454 103.379 28.005 102.835 28.324C102.291 28.6431 101.867 29.089 101.564 29.662C101.26 30.2354 101.108 30.8938 101.108 31.6382C101.108 32.3826 101.263 33.0416 101.573 33.6143C101.883 34.1877 102.313 34.6367 102.864 34.9614C103.414 35.2864 104.043 35.4487 104.751 35.4487C105.27 35.4487 105.731 35.3602 106.136 35.1829C106.541 35.0056 106.892 34.7576 107.189 34.4385C107.486 34.1194 107.743 33.7533 107.958 33.3395L110.823 34.2434C110.519 34.9997 110.07 35.6643 109.476 36.2373C108.881 36.8107 108.179 37.2566 107.37 37.5753C106.56 37.8944 105.668 38.0539 104.694 38.0539L104.694 38.0543Z" fill="url(#paint2_linear_795_1077)"/>
<path d="M112.493 37.8418V25.4349H121.144V28.0579H115.547V30.3266H120.234V32.8612H115.547V35.2184H121.239V37.8414H112.493V37.8418Z" fill="url(#paint3_linear_795_1077)"/>
<path d="M124.011 37.8418V25.4349H127.065V35.2188H132.72V37.8418H124.011Z" fill="url(#paint4_linear_795_1077)"/>
<path d="M140.613 38.0543C139.247 38.0543 138.038 37.7794 136.989 37.2301C135.939 36.6808 135.117 35.9245 134.522 34.9613C133.928 33.9985 133.63 32.8964 133.63 31.6559C133.63 30.4155 133.927 29.2959 134.522 28.3327C135.117 27.3699 135.936 26.6137 136.979 26.064C138.023 25.5146 139.221 25.2398 140.575 25.2398C141.929 25.2398 143.127 25.5146 144.171 26.064C145.214 26.6133 146.033 27.3699 146.628 28.3327C147.222 29.2959 147.519 30.4036 147.519 31.6559C147.519 32.9082 147.226 33.9985 146.637 34.9613C146.049 35.9245 145.236 36.6804 144.199 37.2301C143.162 37.7794 141.966 38.0543 140.613 38.0543H140.613ZM140.613 35.4313C141.359 35.4313 142.017 35.2717 142.586 34.9526C143.155 34.6336 143.598 34.1877 143.914 33.6143C144.23 33.0413 144.388 32.3885 144.388 31.6559C144.388 30.9234 144.224 30.2528 143.895 29.6798C143.566 29.1068 143.117 28.6577 142.548 28.3327C141.978 28.0081 141.321 27.8454 140.575 27.8454C139.828 27.8454 139.17 28.0081 138.601 28.3327C138.032 28.6577 137.583 29.1068 137.254 29.6798C136.925 30.2532 136.761 30.9115 136.761 31.6559C136.761 32.4003 136.925 33.0416 137.254 33.6143C137.583 34.1877 138.038 34.6336 138.62 34.9526C139.202 35.2717 139.866 35.4313 140.612 35.4313H140.613Z" fill="url(#paint5_linear_795_1077)"/>
<path d="M149.76 37.8418V25.4349H152.966L158.791 33.003V25.4349H161.846V37.8418H158.791L152.814 30.0609V37.8418H149.76Z" fill="url(#paint6_linear_795_1077)"/>
<path d="M90.893 49.8147V42.574H92.6731V45.3629H95.8906V42.5845H97.671V49.8147H95.8906V46.8914H92.6731V49.8147H90.893Z" fill="url(#paint7_linear_795_1077)"/>
<path d="M101.305 49.8147V42.5845H106.347V44.113H103.085V45.435H105.816V46.9119H103.085V48.2858H106.402V49.8143H101.304L101.305 49.8147Z" fill="url(#paint8_linear_795_1077)"/>
<path d="M108.96 49.8147L111.968 42.5845H113.869L116.877 49.8147H114.997L114.433 48.4408H111.404L110.84 49.8147H108.961H108.96ZM111.979 46.9743H113.848L112.919 44.6606L111.979 46.9743Z" fill="url(#paint9_linear_795_1077)"/>
<path d="M120.014 49.8147V42.5845H121.794V48.2861H125.089V49.8147H120.013H120.014Z" fill="url(#paint10_linear_795_1077)"/>
<path d="M128.918 49.8147V44.113H126.662V42.5845H132.943V44.113H130.687V49.8147H128.918H128.918Z" fill="url(#paint11_linear_795_1077)"/>
<path d="M136.061 49.8147V42.574H137.841V45.3629H141.059V42.5845H142.839V49.8147H141.059V46.8914H137.841V49.8147H136.061Z" fill="url(#paint12_linear_795_1077)"/>
<path d="M18.6548 51.6965L15.7263 50.4341C16.2691 49.8248 17.0189 49.2818 18.0244 48.9289C18.2468 49.3842 18.6384 50.3672 18.6548 51.6965Z" fill="url(#paint13_linear_795_1077)"/>
<path d="M34.3452 25.3377C34.3452 25.3377 34.2595 25.2305 34.0907 25.0622C34.1685 24.5989 34.1962 24.1879 34.1652 23.8559C34.2213 23.9235 34.2767 23.9938 34.3314 24.0646L34.3452 25.3377Z" fill="url(#paint14_linear_795_1077)"/>
<path d="M34.148 23.7103C34.1551 23.757 34.1611 23.8054 34.1652 23.8562C32.4907 21.8233 30.3042 21.0991 29.2541 21.1249C28.1674 21.1507 25.8124 21.4924 24.5991 22.621C23.3862 23.75 22.4129 24.1036 22.4129 24.1036C23.5135 23.5002 26.5034 18.0929 27.434 16.4129C28.365 14.7328 29.4652 12.3707 30.9885 11.1362C32.5124 9.9027 35.1074 9.98143 37.0252 10.034C38.9441 10.0863 40.918 10.2967 42.2163 11.557C43.5134 12.8162 44.8112 15.7305 45.968 18.0142C47.1247 20.2976 50.9045 27.3066 50.9045 27.3066C45.5734 27.1495 39.1418 29.5119 39.1418 29.5119L33.3023 17.8306C33.3023 17.8306 33.1896 19.0909 33.3023 20.3244C33.415 21.5579 33.923 22.2671 34.1483 23.711L34.148 23.7103Z" fill="url(#paint15_linear_795_1077)"/>
<path d="M15.1656 51.197C14.89 51.6547 14.7111 52.1211 14.6089 52.5506L18.0941 54.0548C18.3217 53.5779 18.5017 53.0766 18.592 52.582L15.1656 51.197ZM15.1656 51.197C14.89 51.6547 14.7111 52.1211 14.6089 52.5506L18.0941 54.0548C18.3217 53.5779 18.5017 53.0766 18.592 52.582L15.1656 51.197ZM15.1656 51.197C14.89 51.6547 14.7111 52.1211 14.6089 52.5506L18.0941 54.0548C18.3217 53.5779 18.5017 53.0766 18.592 52.582L15.1656 51.197ZM15.1656 51.197C14.89 51.6547 14.7111 52.1211 14.6089 52.5506L18.0941 54.0548C18.3217 53.5779 18.5017 53.0766 18.592 52.582L15.1656 51.197ZM15.1656 51.197C14.89 51.6547 14.7111 52.1211 14.6089 52.5506L18.0941 54.0548C18.3217 53.5779 18.5017 53.0766 18.592 52.582L15.1656 51.197ZM15.1656 51.197C14.89 51.6547 14.7111 52.1211 14.6089 52.5506L18.0941 54.0548C18.3217 53.5779 18.5017 53.0766 18.592 52.582L15.1656 51.197ZM15.1656 51.197C14.89 51.6547 14.7111 52.1211 14.6089 52.5506L18.0941 54.0548C18.3217 53.5779 18.5017 53.0766 18.592 52.582L15.1656 51.197ZM15.1656 51.197C14.89 51.6547 14.7111 52.1211 14.6089 52.5506L18.0941 54.0548C18.3217 53.5779 18.5017 53.0766 18.592 52.582L15.1656 51.197ZM15.1656 51.197C14.89 51.6547 14.7111 52.1211 14.6089 52.5506L18.0941 54.0548C18.3217 53.5779 18.5017 53.0766 18.592 52.582L15.1656 51.197ZM15.1656 51.197C14.89 51.6547 14.7111 52.1211 14.6089 52.5506L18.0941 54.0548C18.3217 53.5779 18.5017 53.0766 18.592 52.582L15.1656 51.197ZM15.1656 51.197C14.89 51.6547 14.7111 52.1211 14.6089 52.5506L18.0941 54.0548C18.3217 53.5779 18.5017 53.0766 18.592 52.582L15.1656 51.197ZM15.1656 51.197C14.89 51.6547 14.7111 52.1211 14.6089 52.5506L18.0941 54.0548C18.3217 53.5779 18.5017 53.0766 18.592 52.582L15.1656 51.197ZM15.1656 51.197C14.89 51.6547 14.7111 52.1211 14.6089 52.5506L18.0941 54.0548C18.3217 53.5779 18.5017 53.0766 18.592 52.582L15.1656 51.197ZM15.1656 51.197C14.89 51.6547 14.7111 52.1211 14.6089 52.5506L18.0941 54.0548C18.3217 53.5779 18.5017 53.0766 18.592 52.582L15.1656 51.197ZM15.1656 51.197C14.89 51.6547 14.7111 52.1211 14.6089 52.5506L18.0941 54.0548C18.3217 53.5779 18.5017 53.0766 18.592 52.582L15.1656 51.197ZM15.1656 51.197C14.89 51.6547 14.7111 52.1211 14.6089 52.5506L18.0941 54.0548C18.3217 53.5779 18.5017 53.0766 18.592 52.582L15.1656 51.197ZM15.1656 51.197C14.89 51.6547 14.7111 52.1211 14.6089 52.5506L18.0941 54.0548C18.3217 53.5779 18.5017 53.0766 18.592 52.582L15.1656 51.197ZM15.1656 51.197C14.89 51.6547 14.7111 52.1211 14.6089 52.5506L18.0941 54.0548C18.3217 53.5779 18.5017 53.0766 18.592 52.582L15.1656 51.197ZM15.1656 51.197C14.89 51.6547 14.7111 52.1211 14.6089 52.5506L18.0941 54.0548C18.3217 53.5779 18.5017 53.0766 18.592 52.582L15.1656 51.197ZM15.1656 51.197C14.89 51.6547 14.7111 52.1211 14.6089 52.5506L18.0941 54.0548C18.3217 53.5779 18.5017 53.0766 18.592 52.582L15.1656 51.197Z" fill="url(#paint16_linear_795_1077)"/>
<path d="M59.1701 40.4049C59.1701 40.4049 59.3535 40.3527 60.1011 41.1396C60.1011 41.1396 62.781 37.9634 62.3577 34.7872C61.935 31.611 59.8754 29.0908 54.77 28.4348C49.6639 27.7782 42.9215 29.7209 37.1955 31.4797C31.4688 33.2385 27.2094 36.9926 24.4161 38.3051C21.6234 39.6177 16.7341 43.2401 13.3492 47.7901C13.3492 47.7901 12.9352 46.3898 16.1789 42.7939C19.4234 39.1972 22.3568 38.1473 24.7833 36.6777C27.2094 35.2073 30.0867 33.2911 31.6949 30.8499C32.9081 29.0079 33.8163 26.7036 34.0914 25.0625C33.4794 24.4508 31.7716 23.0223 29.0849 22.9098C25.6578 22.7656 23.2739 25.3907 21.44 25.7314C21.44 25.7314 22.7517 26.1253 24.0361 25.5742C25.3194 25.0232 26.1377 24.4453 27.9143 24.4188C29.6921 24.393 31.6192 25.2897 32.4844 26.4531C32.4844 26.4531 31.681 26.9655 30.7077 26.2567C30.7077 26.2567 30.8204 26.9784 30.242 27.7925C30.242 27.7925 29.8186 30.1678 28.6903 31.4149C27.5621 32.6613 25.9681 33.6725 24.1349 33.475C22.301 33.2785 21.7511 32.1367 21.7511 31.1394C21.7511 30.1421 22.5833 29.3935 23.6127 29.4199C24.6422 29.4457 24.8683 30.365 24.8537 30.7583C24.8398 31.1523 24.4449 31.5198 23.8388 31.3229C23.232 31.1254 23.1193 30.9812 23.1193 30.9812C23.1193 30.9812 22.8371 31.2568 23.0059 31.6636C23.1755 32.0705 23.8665 32.4122 24.826 32.3067C25.7847 32.2018 26.8287 31.7033 27.6893 30.535C28.5492 29.3673 28.7188 28.6456 28.7188 28.6456C28.7188 28.6456 27.6044 28.842 26.6588 28.3829C25.7143 27.9238 25.5305 27.031 25.6155 26.2695C25.6155 26.2695 24.5437 26.8868 23.2316 27.031C21.9199 27.1752 21.2427 27.0575 21.2427 27.0575C21.2427 27.0575 17.6744 33.475 16.2077 35.9953C14.741 38.5148 11.0732 44.9201 10.4244 47.5978C9.77608 50.2752 10.2833 53.2936 11.4116 54.9733C12.5406 56.6541 14.4023 58.8326 17.9844 59.2001C21.5665 59.5676 24.6508 58.8326 28.2512 54.6075C28.1951 54.6598 26.3612 56.3649 24.4164 56.3391C22.4421 56.3127 22.2448 54.1864 23.6266 50.6427C24.437 48.5648 25.7229 46.2435 27.4494 44.3983C27.9428 44.329 28.6424 44.3485 29.5787 44.631C31.751 45.2876 35.2208 47.9908 37.9292 50.2484C40.6369 52.506 43.966 56.0762 46.5048 57.52C48.4832 58.6448 50.9936 59.4192 53.5002 59.3081V47.9908C53.5002 47.9908 50.4826 45.2608 50.158 44.7752C49.8335 44.2903 49.3397 43.4634 49.6785 42.1895C50.0169 40.9163 51.2863 40.6014 52.1896 40.6014C53.0929 40.6014 53.9101 41.2838 54.2062 41.9404C54.2062 41.9404 54.6296 40.6014 56.5474 40.6014C58.4652 40.6014 58.7763 42.4786 58.8463 43.0032C58.9174 43.5285 58.5363 44.5784 57.8591 45.2737C57.1819 45.9697 54.6996 48.1221 54.6996 48.1221V59.1855C55.007 59.1356 55.3128 59.0702 55.6164 58.9897C56.44 58.7706 57.2347 58.4755 57.9767 58.0896V50.4271C57.4518 50.232 57.0831 49.7729 57.0831 49.2378C57.0831 48.5248 57.7378 47.9472 58.5457 47.9472C59.3535 47.9472 60.0071 48.5248 60.0071 49.2378C60.0071 49.7631 59.6522 50.2153 59.142 50.4159V57.3765C60.697 56.2604 61.9092 54.6372 62.4992 52.3489C63.4863 48.5161 61.0886 43.896 59.1708 40.4049H59.1701ZM23.4847 46.2585C22.3583 47.6031 21.1035 47.919 19.0367 48.5896C19.5114 49.4928 20.1406 51.2478 19.9684 52.3046C19.7423 53.6872 19.5918 54.5009 18.6047 55.7435C17.6175 56.986 16.536 57.2922 16.2426 57.2051C15.9483 57.1173 16.0191 56.8725 16.0191 56.8725C16.3298 56.6502 17.0755 55.833 17.6946 54.7977L14.5015 53.4625C14.5247 54.7591 15.3752 56.4963 15.3752 56.4963C15.0229 56.5753 14.8107 56.6541 14.1196 55.9187C13.4286 55.184 12.7652 53.412 13.6401 51.0625C14.5146 48.7129 17.5052 47.5456 19.1134 47.0725C19.6877 46.9043 20.3136 46.6615 20.9092 46.341L17.8717 44.7627L18.6051 44.0545L21.8192 45.7635C22.2235 45.4597 22.5874 45.11 22.8722 44.7118L19.5922 42.9907L20.354 42.2431L23.3308 43.8521C23.3361 43.841 23.3394 43.8288 23.3439 43.8176C23.9507 42.0853 23.2739 40.2739 23.2739 40.2739L24.2611 39.5393C24.2611 39.5393 24.9106 40.3008 25.0229 41.7049C25.1355 43.1095 24.7829 44.7104 23.4851 46.2588L23.4847 46.2585ZM50.4534 51.7187L50.4508 51.7414L44.9913 46.6389C45.1395 46.4131 45.2253 46.148 45.2253 45.8655C45.2253 45.0438 44.5092 44.3774 43.6268 44.3774C42.7445 44.3774 42.0283 45.0438 42.0283 45.8655C42.0283 46.6873 42.7437 47.353 43.6268 47.353C43.762 47.353 43.8926 47.3376 44.0173 47.3077L50.3381 53.311C50.3486 53.5124 50.346 53.7848 50.2835 54.0025C50.1708 54.3964 49.5224 55.0001 48.478 54.7113C47.4347 54.4222 44.8959 51.8758 43.7114 50.8263C42.5259 49.7764 37.2513 44.6052 33.9791 43.6337C31.4074 42.8708 29.8463 42.8851 28.0495 43.7932C29.1317 42.7677 30.3674 41.9383 31.7503 41.4552C35.7281 40.0646 40.7769 40.4053 44.0779 42.4793C47.3785 44.5533 49.9735 48.569 50.4534 51.7194V51.7187ZM58.2529 35.6866C56.9663 35.7155 52.1181 35.8228 52.0324 35.8117C51.9336 35.7981 51.539 35.5884 51.1164 35.6013C50.693 35.6142 50.4669 35.9817 50.4669 35.9817L48.8849 39.9361C48.8478 40.0294 48.7808 40.1078 48.6962 40.1618C48.6124 40.2165 48.5102 40.2478 48.4027 40.2478C48.1534 40.2478 47.9397 40.0803 47.8962 39.8514L46.574 32.8449L45.2294 37.9C45.2009 38.0055 45.1392 38.0975 45.0553 38.1658C44.9703 38.2344 44.8648 38.2793 44.748 38.2908C44.5013 38.3149 44.2673 38.1846 44.1737 37.9711L42.9354 35.1422L42.6999 35.5724C42.5068 35.9259 42.1156 36.1478 41.6896 36.1461L32.5147 36.1019C32.3414 36.1012 32.2014 35.9705 32.2014 35.8092C32.2014 35.648 32.338 35.5201 32.5087 35.5159L41.5814 35.3257L42.5363 33.853C42.7527 33.5192 43.2862 33.559 43.443 33.9205L44.5851 36.5592L46.1125 30.5768C46.1368 30.4817 46.1915 30.3981 46.2667 30.335C46.3412 30.2713 46.4363 30.2288 46.5411 30.2159C46.8121 30.1814 47.0641 30.3521 47.1127 30.6026L48.563 38.108C48.563 38.108 49.1552 36.7034 49.3528 36.1492C49.5501 35.595 49.8612 34.8398 50.3973 34.6642C50.9333 34.4894 51.709 34.6642 51.709 34.6642C51.709 34.6642 52.1039 34.906 52.3435 34.9189C52.5505 34.93 57.0277 35.0589 58.2548 35.0937C58.3413 35.0962 58.4176 35.13 58.4738 35.184C58.5292 35.2373 58.5629 35.3097 58.5629 35.3902C58.5629 35.5515 58.4263 35.6835 58.2529 35.6866Z" fill="url(#paint17_linear_795_1077)"/>
<path d="M28.0835 27.6933C28.8183 27.6933 29.414 27.1919 29.414 26.5733C29.414 25.9548 28.8183 25.4534 28.0835 25.4534C27.3488 25.4534 26.7531 25.9548 26.7531 26.5733C26.7531 27.1919 27.3488 27.6933 28.0835 27.6933Z" fill="url(#paint18_linear_795_1077)"/>
<defs>
<linearGradient id="paint0_linear_795_1077" x1="77.5831" y1="25.4349" x2="77.5831" y2="37.8418" gradientUnits="userSpaceOnUse">
<stop stop-color="white"/>
<stop offset="1" stop-color="white"/>
</linearGradient>
<linearGradient id="paint1_linear_795_1077" x1="90.9879" y1="25.222" x2="90.9879" y2="38.0543" gradientUnits="userSpaceOnUse">
<stop stop-color="white"/>
<stop offset="1" stop-color="white"/>
</linearGradient>
<linearGradient id="paint2_linear_795_1077" x1="104.4" y1="25.222" x2="104.4" y2="38.0543" gradientUnits="userSpaceOnUse">
<stop stop-color="white"/>
<stop offset="1" stop-color="white"/>
</linearGradient>
<linearGradient id="paint3_linear_795_1077" x1="116.866" y1="25.4349" x2="116.866" y2="37.8418" gradientUnits="userSpaceOnUse">
<stop stop-color="white"/>
<stop offset="1" stop-color="white"/>
</linearGradient>
<linearGradient id="paint4_linear_795_1077" x1="128.365" y1="25.4349" x2="128.365" y2="37.8418" gradientUnits="userSpaceOnUse">
<stop stop-color="white"/>
<stop offset="1" stop-color="white"/>
</linearGradient>
<linearGradient id="paint5_linear_795_1077" x1="140.575" y1="25.2398" x2="140.575" y2="38.0543" gradientUnits="userSpaceOnUse">
<stop stop-color="white"/>
<stop offset="1" stop-color="white"/>
</linearGradient>
<linearGradient id="paint6_linear_795_1077" x1="155.803" y1="25.4349" x2="155.803" y2="37.8418" gradientUnits="userSpaceOnUse">
<stop stop-color="white"/>
<stop offset="1" stop-color="white"/>
</linearGradient>
<linearGradient id="paint7_linear_795_1077" x1="94.282" y1="42.574" x2="94.282" y2="49.8147" gradientUnits="userSpaceOnUse">
<stop stop-color="white"/>
<stop offset="1" stop-color="white"/>
</linearGradient>
<linearGradient id="paint8_linear_795_1077" x1="103.853" y1="42.5845" x2="103.853" y2="49.8147" gradientUnits="userSpaceOnUse">
<stop stop-color="white"/>
<stop offset="1" stop-color="white"/>
</linearGradient>
<linearGradient id="paint9_linear_795_1077" x1="112.919" y1="42.5845" x2="112.919" y2="49.8147" gradientUnits="userSpaceOnUse">
<stop stop-color="white"/>
<stop offset="1" stop-color="white"/>
</linearGradient>
<linearGradient id="paint10_linear_795_1077" x1="122.551" y1="42.5845" x2="122.551" y2="49.8147" gradientUnits="userSpaceOnUse">
<stop stop-color="white"/>
<stop offset="1" stop-color="white"/>
</linearGradient>
<linearGradient id="paint11_linear_795_1077" x1="129.803" y1="42.5845" x2="129.803" y2="49.8147" gradientUnits="userSpaceOnUse">
<stop stop-color="white"/>
<stop offset="1" stop-color="white"/>
</linearGradient>
<linearGradient id="paint12_linear_795_1077" x1="139.45" y1="42.574" x2="139.45" y2="49.8147" gradientUnits="userSpaceOnUse">
<stop stop-color="white"/>
<stop offset="1" stop-color="white"/>
</linearGradient>
<linearGradient id="paint13_linear_795_1077" x1="17.1906" y1="48.9289" x2="17.1906" y2="51.6965" gradientUnits="userSpaceOnUse">
<stop stop-color="white"/>
<stop offset="1" stop-color="white"/>
</linearGradient>
<linearGradient id="paint14_linear_795_1077" x1="34.218" y1="23.8559" x2="34.218" y2="25.3377" gradientUnits="userSpaceOnUse">
<stop stop-color="white"/>
<stop offset="1" stop-color="white"/>
</linearGradient>
<linearGradient id="paint15_linear_795_1077" x1="36.6587" y1="10.0098" x2="36.6587" y2="29.5119" gradientUnits="userSpaceOnUse">
<stop stop-color="white"/>
<stop offset="1" stop-color="white"/>
</linearGradient>
<linearGradient id="paint16_linear_795_1077" x1="16.6004" y1="51.197" x2="16.6004" y2="54.0548" gradientUnits="userSpaceOnUse">
<stop stop-color="white"/>
<stop offset="1" stop-color="white"/>
</linearGradient>
<linearGradient id="paint17_linear_795_1077" x1="36.4337" y1="22.9041" x2="36.4337" y2="59.3187" gradientUnits="userSpaceOnUse">
<stop stop-color="white"/>
<stop offset="1" stop-color="white"/>
</linearGradient>
<linearGradient id="paint18_linear_795_1077" x1="28.0835" y1="25.4534" x2="28.0835" y2="27.6933" gradientUnits="userSpaceOnUse">
<stop stop-color="white"/>
<stop offset="1" stop-color="white"/>
</linearGradient>
</defs>
</svg>
